<svg width="0" height="0" class="hidden">
  <symbol fill="var(--clr-neutral-100)" xmlns="http://www.w3.org/2000/svg" viewBox="0 0 87 41" id="logo">
    <path d="M0.275186 40V0.799997H14.6672C17.8032 0.799997 20.3792 1.34133 22.3952 2.424C24.4485 3.46933 25.9792 4.90667 26.9872 6.736C27.9952 8.528 28.4992 10.5253 28.4992 12.728C28.4992 15.1173 27.8645 17.3013 26.5952 19.28C25.3632 21.2587 23.4219 22.696 20.7712 23.592L28.8912 40H20.6592L13.3792 24.544H7.44319V40H0.275186ZM7.44319 19.28H14.2192C16.6085 19.28 18.3632 18.7013 19.4832 17.544C20.6032 16.3867 21.1632 14.856 21.1632 12.952C21.1632 11.0853 20.6032 9.592 19.4832 8.472C18.4005 7.352 16.6272 6.792 14.1632 6.792H7.44319V19.28ZM39.8138 40.672C36.0058 40.672 32.9445 39.608 30.6298 37.48C28.3525 35.3147 27.2138 32.2533 27.2138 28.296H34.3818C34.4191 30.1253 34.8485 31.5813 35.6698 32.664C36.4911 33.7467 37.8165 34.288 39.6458 34.288C41.3631 34.288 42.6138 33.784 43.3978 32.776C44.1818 31.7307 44.5738 30.368 44.5738 28.688V0.799997H51.7418V28.688C51.7418 32.5333 50.6591 35.5013 48.4938 37.592C46.3658 39.6453 43.4725 40.672 39.8138 40.672ZM49.5552 40L63.8912 0.799997H71.9552L86.2912 40H78.6752L75.5392 30.928H60.2512L57.0592 40H49.5552ZM62.2112 25.328H73.5792L67.8672 9.032L62.2112 25.328Z" fill="white"></path>
  </symbol>
</svg>
